<svg xmlns="http://www.w3.org/2000/svg" viewBox="0 0 512 512">
  <path fill="currentColor" d="M75 384Q107 413 152 438Q196 462 241 458Q250 456 259 453Q245 435 235 418Q203 364 209 304Q177 311 154 330Q149 334 144 331Q138 329 139 323Q144 297 162 279Q181 261 207 257Q211 256 215 256L235 124Q236 101 260 79Q273 67 299 57Q324 47 363 43Q363 43 363 43Q362 42 361 41Q347 28 303 17Q259 5 176 17Q93 31 54 54Q15 78 6 95Q-2 107 1 123L25 287Q33 345 75 384M162 165Q171 160 174 168Q174 168 174 169Q174 169 174 170Q176 186 167 199Q158 212 141 215Q125 217 112 207Q99 198 97 181Q97 181 97 181Q96 180 96 180Q97 171 107 173Q120 178 135 175Q150 173 162 165M262 401Q284 438 320 475Q355 512 399 521Q444 525 488 501Q533 476 565 447Q607 408 615 350L639 185Q642 170 634 158Q624 141 586 117Q547 93 464 79Q381 68 337 79Q293 90 279 104Q268 114 266 129L242 293Q233 351 262 401M405 246Q393 238 378 236Q363 233 349 238Q340 240 339 231Q339 231 339 230Q339 230 339 230Q342 213 354 203Q367 194 384 196Q400 199 409 212Q419 225 417 241Q417 242 417 242Q416 243 416 243Q413 251 405 246M541 262Q537 270 529 265Q517 257 502 254Q487 252 473 257Q464 259 463 250Q463 250 463 249Q463 249 463 248Q466 232 479 222Q491 213 508 215Q524 218 534 231Q543 243 541 260Q541 261 541 261Q541 261 541 262M530 361Q515 395 483 413Q451 431 413 426Q375 420 350 393Q325 367 320 329Q320 323 325 321Q330 319 335 323Q372 355 422 363Q473 370 517 350Q523 348 528 351Q532 355 530 361"/>
</svg>