<svg xmlns="http://www.w3.org/2000/svg" viewBox="0 0 512 512">
  <path fill="currentColor" d="M320 107Q320 121 311 130Q302 139 288 139Q274 139 265 130Q256 121 256 107Q256 93 265 84Q274 75 288 75Q302 75 311 84Q320 93 320 107M341 187Q382 159 384 107Q383 66 356 39Q329 12 288 11Q247 12 220 39Q193 66 192 107Q194 159 235 187L224 187Q210 187 201 196Q192 205 192 219Q192 233 201 242Q210 251 224 251L256 251L256 459L208 459Q167 458 140 431Q113 404 112 363L112 357L119 364Q136 378 153 364Q167 347 153 330L97 274Q80 260 63 274L7 330Q-7 347 7 364Q24 378 41 364L48 357L48 363Q50 431 95 476Q140 521 208 523L288 523L368 523Q436 521 481 476Q526 431 528 363L528 357L535 364Q552 378 569 364Q583 347 569 330L513 274Q496 260 479 274L423 330Q409 347 423 364Q440 378 457 364L464 357L464 363Q463 404 436 431Q409 458 368 459L320 459L320 251L352 251Q366 251 375 242Q384 233 384 219Q384 205 375 196Q366 187 352 187"/>
</svg>