<svg xmlns="http://www.w3.org/2000/svg" viewBox="0 0 512 512">
  <path fill="currentColor" d="M319 20Q309 11 296 11Q283 11 273 20L153 140Q144 150 144 163Q144 176 153 186L169 202Q179 211 192 211Q205 211 215 202L219 198L325 304L321 308Q312 318 312 331Q312 344 321 354L337 370Q347 379 360 379Q373 379 383 370L503 250Q512 240 512 227Q512 214 503 204L487 188Q477 179 464 179Q451 179 441 188L437 192L331 86L335 82Q344 72 344 59Q344 46 335 36L319 20M167 308Q157 299 144 299Q131 299 121 308L9 420Q0 430 0 443Q0 456 9 466L57 514Q67 523 80 523Q93 523 103 514L215 402Q224 392 224 379Q224 366 215 356L213 355L272 296L227 251L168 310"/>
</svg>