<svg xmlns="http://www.w3.org/2000/svg" viewBox="0 0 512 512">
  <path fill="currentColor" d="M414 249Q369 256 334 223L295 185Q272 161 272 129L272 117L192 73Q184 68 184 58Q185 49 194 44L241 23Q269 11 299 11L317 11Q374 12 416 50L461 92Q497 129 487 178L503 194L511 186Q528 172 545 186L569 210Q583 227 569 244L481 332Q464 346 447 332L423 308Q409 291 423 274L431 266L414 249M27 388L261 194L27 388L261 194Q266 201 273 208L311 246Q320 255 330 261L135 496Q112 522 76 523Q44 522 22 501Q1 479 0 447Q1 411 27 388"/>
</svg>