<svg xmlns="http://www.w3.org/2000/svg" viewBox="0 0 512 512">
  <path fill="currentColor" d="M250 483Q258 485 265 480Q272 476 272 467L272 90Q272 83 267 79Q252 66 220 55Q188 44 144 43Q106 43 73 51Q40 59 18 67Q1 75 0 95L0 465Q0 474 8 479Q15 484 24 482Q49 473 81 466Q114 459 144 459Q170 460 200 467Q229 475 250 483M326 483Q347 475 376 467Q406 460 432 459Q462 459 495 466Q527 473 552 482Q561 484 568 479Q576 474 576 465L576 95Q575 75 558 67Q536 59 503 51Q470 43 432 43Q388 44 356 55Q324 66 309 79Q304 83 304 90L304 467Q304 476 311 480Q318 485 326 483"/>
</svg>