<svg xmlns="http://www.w3.org/2000/svg" viewBox="0 0 512 512">
  <path fill="currentColor" d="M512 30Q513 22 507 16Q501 10 493 11L365 35Q356 37 353 46Q350 55 357 62L392 97L145 344L94 332Q81 329 71 338L7 402Q-2 412 1 425Q5 439 18 442L68 455L81 505Q84 518 98 522Q111 525 121 516L185 452Q194 442 191 429L179 378L426 131L461 166Q468 173 477 170Q486 167 488 158L512 30M54 116L54 115Q44 107 31 107Q19 107 9 116Q0 126 0 139Q0 152 9 162L146 298L191 253L100 162Q144 139 191 139Q239 139 282 162L329 115Q265 75 191 75Q118 75 54 116M362 241Q384 284 384 332Q384 379 361 423L270 332L225 377L361 514Q371 523 384 523Q397 523 407 514Q416 504 416 492Q416 479 408 469Q448 405 448 332Q448 258 408 194"/>
</svg>