<svg xmlns="http://www.w3.org/2000/svg" viewBox="0 0 512 512">
  <path fill="currentColor" d="M480 43Q479 22 460 13Q441 6 425 20L382 64Q345 100 299 120Q252 139 201 139L192 139L64 139Q37 140 19 158Q1 176 0 203L0 299Q1 326 19 344Q37 362 64 363L64 491Q64 505 73 514Q82 523 96 523L160 523Q174 523 183 514Q192 505 192 491L192 363L201 363Q252 363 299 383Q345 402 382 438L425 482Q441 496 460 489Q479 480 480 459L480 311Q494 304 503 288Q512 272 512 251Q512 230 503 214Q494 198 480 191L480 43M416 120L416 251L416 120L416 251L416 382Q371 342 316 321Q261 299 201 299L192 299L192 203L201 203Q261 203 316 181Q371 160 416 120"/>
</svg>