<svg xmlns="http://www.w3.org/2000/svg" viewBox="0 0 512 512">
  <path fill="currentColor" d="M208 363Q296 361 355 311Q414 262 416 187Q414 112 355 63Q296 13 208 11Q120 13 61 63Q2 112 0 187Q1 246 40 290Q34 305 25 315Q18 324 12 329Q9 332 8 333Q7 334 7 334L6 334Q-2 341 1 352Q5 362 16 363Q50 362 78 351Q92 345 103 339Q150 362 208 363M448 187Q445 273 384 329Q322 385 232 394Q251 451 305 486Q359 522 432 523Q490 522 537 499Q548 505 562 511Q590 522 624 523Q635 522 639 512Q642 501 633 494Q633 494 633 493Q632 493 632 493Q631 492 628 489Q622 484 615 475Q606 464 600 450Q639 406 640 347Q638 276 584 227Q530 178 447 171Q448 179 448 187"/>
</svg>