<svg xmlns="http://www.w3.org/2000/svg" viewBox="0 0 512 512">
  <path fill="currentColor" d="M459 63L443 18L459 63L443 18Q439 11 432 11Q425 11 422 18L405 63L359 80Q352 83 352 91Q352 98 359 101L405 118L422 163Q425 170 432 171Q440 170 443 163L459 118L505 101Q511 98 512 91Q511 83 505 80L459 63M327 116Q317 107 304 107Q291 107 281 116L279 119Q245 107 208 107Q120 109 61 168Q2 227 0 315Q2 403 61 462Q120 521 208 523Q296 521 355 462Q414 403 416 315Q416 278 404 245L407 242Q416 232 416 219Q416 206 407 196L327 116M200 203Q156 204 126 233Q97 263 96 307L96 315Q95 330 80 331Q65 330 64 315L64 307Q65 249 104 211Q142 172 200 171L208 171Q223 172 224 187Q223 202 208 203"/>
</svg>