<svg xmlns="http://www.w3.org/2000/svg" viewBox="0 0 512 512">
  <path fill="currentColor" d="M160 75Q161 48 179 30Q197 12 224 11L576 11Q603 12 621 30Q639 48 640 75L640 363Q639 390 621 408Q603 426 576 427L337 427Q319 388 284 363L384 363L384 331Q384 317 393 308Q402 299 416 299L480 299Q494 299 503 308Q512 317 512 331L512 363L576 363L576 75L224 75L224 124Q195 107 160 107L160 75M160 139Q186 139 208 152Q230 165 243 187Q256 210 256 235Q256 260 243 283Q230 305 208 318Q186 331 160 331Q134 331 112 318Q90 305 77 283Q64 260 64 235Q64 210 77 187Q90 165 112 152Q134 139 160 139M133 363L187 363L133 363L187 363Q243 364 281 402Q319 440 320 496Q318 521 293 523L27 523Q2 521 0 496Q1 440 39 402Q77 364 133 363"/>
</svg>