<svg xmlns="http://www.w3.org/2000/svg" viewBox="0 0 512 512">
  <path fill="currentColor" d="M144 27Q143 12 128 11Q113 12 112 27L112 43L96 43Q81 44 80 59Q81 74 96 75L112 75L112 107L60 107Q42 109 40 127Q40 131 41 135L74 219L72 219Q50 221 48 243Q50 265 72 267L76 267L60 395L196 395L180 267L184 267Q206 265 208 243Q206 221 184 219L182 219L215 135Q216 131 216 127Q214 109 196 107L144 107L144 75L160 75Q175 74 176 59Q175 44 160 43L144 43L144 27M48 427L5 485L48 427L5 485Q0 491 0 499Q2 521 24 523L232 523Q254 521 256 499Q256 491 251 485L208 427L48 427M336 427L293 485L336 427L293 485Q288 491 288 499Q290 521 312 523L488 523Q510 521 512 499Q512 491 507 485L464 427L336 427M304 219L304 271L304 219L304 271Q304 283 312 292L339 323L337 395L463 395L459 323L488 292Q496 283 496 271L496 219Q495 204 480 203L464 203Q449 204 448 219L448 235L424 235L424 219Q423 204 408 203L392 203Q377 204 376 219L376 235L352 235L352 219Q351 204 336 203L320 203Q305 204 304 219M384 315Q385 300 400 299Q415 300 416 315L416 347L384 347"/>
</svg>