<svg xmlns="http://www.w3.org/2000/svg" viewBox="0 0 512 512">
  <path fill="currentColor" d="M256 459Q328 458 385 431Q443 403 477 356Q511 309 512 251Q511 193 477 146Q443 99 385 71Q328 44 256 43Q184 44 127 71Q69 99 35 146Q1 193 0 251Q1 320 48 372Q43 409 26 435Q18 449 11 456Q8 460 6 462Q6 463 5 463Q5 463 5 464Q-2 471 1 481Q6 491 16 491Q60 489 98 472Q133 456 152 441Q200 459 256 459M128 219Q142 219 151 228Q160 237 160 251Q160 265 151 274Q142 283 128 283Q114 283 105 274Q96 265 96 251Q96 237 105 228Q114 219 128 219M256 219Q270 219 279 228Q288 237 288 251Q288 265 279 274Q270 283 256 283Q242 283 233 274Q224 265 224 251Q224 237 233 228Q242 219 256 219M352 251Q352 237 361 228Q370 219 384 219Q398 219 407 228Q416 237 416 251Q416 265 407 274Q398 283 384 283Q370 283 361 274Q352 265 352 251"/>
</svg>