<svg xmlns="http://www.w3.org/2000/svg" viewBox="0 0 512 512">
  <path fill="currentColor" d="M256 523Q326 522 384 489Q442 455 478 395Q512 334 512 267Q512 200 478 139Q442 79 384 45Q326 12 256 11Q186 12 128 45Q70 79 34 139Q0 200 0 267Q0 334 34 395Q70 455 128 489Q186 522 256 523M307 336L162 392L307 336L162 392Q147 396 137 386Q127 376 131 361L187 216Q192 203 205 198L350 142Q365 138 375 148Q385 158 381 173L325 318Q320 331 307 336M288 267Q288 253 279 244Q270 235 256 235Q242 235 233 244Q224 253 224 267Q224 281 233 290Q242 299 256 299Q270 299 279 290Q288 281 288 267"/>
</svg>