<svg xmlns="http://www.w3.org/2000/svg" viewBox="0 0 512 512">
  <path fill="currentColor" d="M256 11Q270 11 279 20Q288 29 288 43L288 53Q360 65 409 114Q458 164 470 235L480 235Q494 235 503 244Q512 253 512 267Q512 281 503 290Q494 299 480 299L470 299Q458 371 409 420Q359 469 288 481L288 491Q288 505 279 514Q270 523 256 523Q242 523 233 514Q224 505 224 491L224 481Q152 469 103 420Q54 371 42 299L32 299Q18 299 9 290Q0 281 0 267Q0 253 9 244Q18 235 32 235L42 235Q54 163 103 114Q152 65 224 53L224 43Q224 29 233 20Q242 11 256 11M107 299Q117 343 149 374Q180 406 224 416L224 395Q224 381 233 372Q242 363 256 363Q270 363 279 372Q288 381 288 395L288 416Q332 406 363 374Q395 343 405 299L384 299Q370 299 361 290Q352 281 352 267Q352 253 361 244Q370 235 384 235L405 235Q395 191 363 160Q332 128 288 118L288 139Q288 153 279 162Q270 171 256 171Q242 171 233 162Q224 153 224 139L224 118Q180 128 149 160Q117 191 107 235L128 235Q142 235 151 244Q160 253 160 267Q160 281 151 290Q142 299 128 299L107 299M256 235Q270 235 279 244Q288 253 288 267Q288 281 279 290Q270 299 256 299Q242 299 233 290Q224 281 224 267Q224 253 233 244Q242 235 256 235"/>
</svg>