<svg xmlns="http://www.w3.org/2000/svg" viewBox="0 0 512 512">
  <path fill="currentColor" d="M224 43Q224 29 215 20Q206 11 192 11Q178 11 169 20Q160 29 160 43L160 139L48 139Q28 140 14 153Q1 167 0 187Q1 207 14 221Q28 234 48 235Q81 233 93 203L192 203L291 203Q303 233 336 235Q356 234 370 221Q383 207 384 187Q383 167 370 153Q356 140 336 139L224 139L224 43M232 235L128 235L128 259L128 235L128 259L128 426Q128 442 137 456L172 512Q179 523 192 523Q205 523 212 512L248 456Q256 442 256 426L256 259L256 235"/>
</svg>