<svg xmlns="http://www.w3.org/2000/svg" viewBox="0 0 512 512">
  <path fill="currentColor" d="M352 136L300 123L352 136L300 123Q290 119 288 109Q287 98 297 93L338 72L294 40Q286 33 289 22Q293 11 304 11L416 11L464 11Q511 12 541 49L598 126Q608 139 608 155Q607 175 594 189Q580 202 560 203L539 203Q512 203 493 184L480 171L448 171L448 193Q449 232 482 254L588 320Q613 336 626 360Q640 384 640 413Q639 460 608 491Q577 522 530 523L496 523L32 523Q27 523 23 522Q8 517 2 503Q0 498 0 492Q0 487 1 482Q6 467 20 461Q24 459 29 459L433 423Q447 421 448 407Q448 400 443 396L399 351Q353 304 352 238L352 193L352 136M512 83Q512 83 512 83Q512 83 512 83Q512 83 512 83Q512 83 512 83M511 91L464 79L511 91L464 79Q464 81 464 83Q466 105 488 107Q505 106 511 91M131 128Q144 117 159 115Q175 114 189 123L320 210L320 238Q320 288 344 331L112 331Q101 330 97 321Q94 310 102 303L171 243L18 267Q7 268 2 258Q-3 247 5 239"/>
</svg>