<svg xmlns="http://www.w3.org/2000/svg" viewBox="0 0 512 512">
  <path fill="currentColor" d="M39 16Q20 4 5 20Q-7 39 9 54L601 518Q620 530 635 514Q647 495 631 480L526 398Q555 367 575 335Q595 304 606 279Q610 267 606 255Q594 227 571 192Q548 157 513 124Q477 90 429 67Q381 44 320 43Q269 44 226 60Q184 77 151 104L39 16M223 161Q263 124 320 123Q381 125 422 165Q462 206 464 267Q464 305 447 336L408 306Q421 276 413 242Q404 211 380 192Q355 173 324 171Q315 173 317 183Q320 192 320 203Q320 219 313 231L223 161M373 401Q348 411 320 411Q259 409 218 369Q178 328 176 267Q176 257 177 247L83 173Q49 219 35 255Q30 267 35 279Q46 307 69 342Q92 377 128 410Q163 444 211 467Q259 490 320 491Q392 489 446 459"/>
</svg>