<svg xmlns="http://www.w3.org/2000/svg" viewBox="0 0 512 512">
  <path fill="currentColor" d="M288 43Q227 44 179 67Q131 90 95 124Q60 157 37 192Q14 227 3 255Q-2 267 3 279Q14 307 37 342Q60 377 95 410Q131 444 179 467Q227 490 288 491Q349 490 397 467Q445 444 481 410Q516 377 539 342Q562 307 574 279Q579 267 574 255Q562 227 539 192Q516 157 481 124Q445 90 397 67Q349 44 288 43M144 267Q144 228 163 195Q182 162 216 142Q250 123 288 123Q326 123 360 142Q394 162 413 195Q432 228 432 267Q432 306 413 339Q394 372 360 392Q326 411 288 411Q250 411 216 392Q182 372 163 339Q144 306 144 267M288 203Q287 230 269 248Q251 266 224 267Q213 267 204 264Q194 262 192 271Q192 281 195 292Q207 331 240 350Q273 369 313 360Q352 348 371 315Q390 282 381 242Q372 211 348 192Q323 173 292 171Q283 173 285 183Q288 192 288 203"/>
</svg>