<svg xmlns="http://www.w3.org/2000/svg" viewBox="0 0 512 512">
  <path fill="currentColor" d="M64 11Q37 12 19 30Q1 48 0 75L0 459Q1 486 19 504Q37 522 64 523L320 523Q347 522 365 504Q383 486 384 459L384 171L256 171Q242 171 233 162Q224 153 224 139L224 11L64 11M256 11L256 139L256 11L256 139L384 139L256 11M112 267L272 267L112 267L272 267Q287 268 288 283Q287 298 272 299L112 299Q97 298 96 283Q97 268 112 267M112 331L272 331L112 331L272 331Q287 332 288 347Q287 362 272 363L112 363Q97 362 96 347Q97 332 112 331M112 395L272 395L112 395L272 395Q287 396 288 411Q287 426 272 427L112 427Q97 426 96 411Q97 396 112 395"/>
</svg>