<svg xmlns="http://www.w3.org/2000/svg" viewBox="0 0 512 512">
  <path fill="currentColor" d="M119 91Q100 92 95 110L57 271Q89 260 136 259Q186 261 219 273Q235 278 244 282Q248 283 250 284Q251 285 251 285Q251 285 251 285Q253 286 253 286L254 286Q254 286 253 288Q252 290 248 299L254 286Q263 291 268 299L308 299Q313 291 322 286L328 299Q324 290 323 288Q322 286 322 286L323 286Q323 286 324 285Q324 285 325 285Q325 285 326 284Q328 283 332 282Q341 278 358 273Q390 261 440 259Q487 261 519 271L481 110Q476 92 457 91Q453 91 448 93L417 105Q396 112 386 92Q379 71 399 61L430 48Q443 43 457 43Q483 43 503 59Q522 74 528 99L572 287Q575 298 576 309Q576 312 576 315L576 322L576 363L576 379Q575 427 543 458Q512 490 464 491L420 491Q374 490 343 460Q311 431 308 385L307 363L269 363L268 385Q265 431 233 460Q202 490 156 491L112 491Q64 490 33 458Q1 427 0 379L0 363L0 322L0 315Q0 312 1 309Q1 298 4 287L48 99Q54 74 73 59Q93 43 119 43Q133 43 146 48L177 61Q197 71 190 92Q180 111 159 105L128 93Q123 91 119 91M64 337L64 336L64 379L64 336L64 379Q65 399 78 413Q92 426 112 427L156 427Q176 427 189 414Q203 401 204 382L207 336Q203 335 199 334Q172 324 136 323Q99 324 72 334Q72 334 72 334Q68 335 64 337M512 379L512 336L512 379L512 336Q508 335 504 334Q477 324 440 323Q404 324 377 334Q373 335 370 336Q370 336 369 336L372 382Q373 401 387 414Q400 426 420 427L464 427Q484 426 498 413Q511 399 512 379"/>
</svg>