<svg xmlns="http://www.w3.org/2000/svg" viewBox="0 0 512 512">
  <path fill="currentColor" d="M560 403Q573 393 576 377Q578 361 568 347Q558 334 542 331Q526 329 512 339L393 427L272 427Q257 426 256 411Q257 396 272 395L288 395L352 395Q366 395 375 386Q384 377 384 363Q384 349 375 340Q366 331 352 331L288 331L194 331Q149 331 114 359L69 395L32 395Q18 395 9 404Q0 413 0 427L0 491Q0 505 9 514Q18 523 32 523L192 523L353 523Q397 523 433 497L560 403M194 395Q194 395 194 396Q193 396 193 396Q193 395 193 395Q193 395 193 394Q193 394 193 394Q194 395 194 395"/>
</svg>