<svg xmlns="http://www.w3.org/2000/svg" viewBox="0 0 512 512">
  <path fill="currentColor" d="M64 475L64 328L64 475L64 328Q65 245 111 180Q157 115 235 87L404 27Q421 21 434 31Q447 40 448 57Q448 75 433 85L400 107Q437 107 466 128Q495 148 508 182L557 311Q565 335 560 360Q555 384 537 402Q512 426 477 427L473 427Q432 426 406 395L373 357Q356 363 336 363Q326 363 317 361Q312 361 307 359Q262 346 239 307Q230 295 217 301Q205 310 211 323Q230 355 261 374Q292 393 330 395L378 466Q384 475 384 486Q383 502 373 512Q363 523 347 523L112 523Q92 522 78 509Q65 495 64 475M392 235Q414 233 416 211Q414 189 392 187Q370 189 368 211Q370 233 392 235"/>
</svg>