<svg xmlns="http://www.w3.org/2000/svg" viewBox="0 0 512 512">
  <path fill="currentColor" d="M448 249L448 171L448 249L448 171L464 171L474 191Q484 210 503 217Q522 224 542 217Q574 202 576 167L576 91Q575 61 554 43L560 43Q575 42 576 27Q575 12 560 11L480 11L448 11Q394 12 357 48Q321 85 320 139L224 139L149 139Q101 141 76 180Q43 185 22 209Q1 233 0 267L0 323Q2 345 24 347Q46 345 48 323L48 267Q49 246 65 235Q67 254 78 271L107 313Q118 334 105 355Q80 399 95 449L113 501Q121 522 143 523L177 523Q194 522 203 510Q212 497 207 481L186 418Q183 408 191 400L203 388Q224 367 224 338Q224 334 224 331L308 355Q314 357 320 358L320 491Q320 505 329 514Q338 523 352 523L384 523Q398 523 407 514Q416 505 416 491L416 327Q446 297 448 251L448 249M496 75Q511 76 512 91Q511 106 496 107Q481 106 480 91Q481 76 496 75"/>
</svg>