<svg xmlns="http://www.w3.org/2000/svg" viewBox="0 0 512 512">
  <path fill="currentColor" d="M0 139Q1 112 19 94Q37 76 64 75L256 75L576 75Q603 76 621 94Q639 112 640 139L640 395Q639 422 621 440Q603 458 576 459L320 459L64 459Q37 458 19 440Q1 422 0 395L0 139M320 139L320 395L320 139L320 395L576 395L576 139L320 139M178 187Q173 176 160 175Q147 176 142 187L78 331Q72 348 88 357Q105 363 114 347L123 327L197 327L206 347Q215 363 232 357Q248 348 242 331L178 187M160 244L179 287L160 244L179 287L141 287L160 244M448 175Q466 177 468 195L468 199L512 199L528 199Q546 201 548 219Q546 237 528 239L526 239L524 244Q511 280 485 309Q486 310 488 311L506 322Q521 333 513 349Q502 364 486 356L467 345Q460 341 454 336Q438 348 420 356L416 357Q399 363 390 347Q384 330 400 321L404 319Q413 315 422 309L410 297Q398 283 410 269Q424 257 438 269L453 283L453 284Q472 264 483 239L448 239L376 239Q358 237 356 219Q358 201 376 199L428 199L428 195Q430 177 448 175"/>
</svg>