<svg xmlns="http://www.w3.org/2000/svg" viewBox="0 0 512 512">
  <path fill="currentColor" d="M0 267Q1 197 34 139Q68 81 128 45Q189 11 256 11Q323 11 384 45Q444 81 478 139Q511 197 512 267Q511 337 478 395Q444 453 384 489Q323 523 256 523Q189 523 128 489Q68 453 34 395Q1 337 0 267M339 407Q349 396 340 384Q328 370 307 359Q286 348 256 347Q226 348 205 359Q184 370 172 384Q163 396 173 407Q185 416 196 406Q205 396 220 387Q235 379 256 379Q277 379 292 387Q307 396 316 406Q327 416 339 407M176 283Q190 283 199 274Q208 265 208 251Q208 249 208 247L219 250Q233 254 239 240Q243 226 229 220L133 188Q119 185 113 198Q110 212 123 218L154 228Q145 237 144 251Q145 265 154 274Q163 283 176 283M369 251L368 251Q368 237 359 228L389 218Q403 212 399 198Q393 185 379 188L283 220Q270 226 273 240Q279 253 293 250L305 246Q305 248 305 251Q305 265 314 274Q323 283 337 283Q350 283 359 274Q368 265 369 251"/>
</svg>