<svg xmlns="http://www.w3.org/2000/svg" viewBox="0 0 512 512">
  <path fill="currentColor" d="M275 45Q253 24 224 24Q195 24 173 45L34 184Q13 206 13 235Q13 264 34 286L173 425Q195 446 224 446Q253 446 275 425L414 286Q435 264 435 235Q435 206 414 184L275 45M200 235Q202 213 224 211Q246 213 248 235Q246 257 224 259Q202 257 200 235M96 211Q118 213 120 235Q118 257 96 259Q74 257 72 235Q74 213 96 211M224 387Q202 385 200 363Q202 341 224 339Q246 341 248 363Q246 385 224 387M352 211Q374 213 376 235Q374 257 352 259Q330 257 328 235Q330 213 352 211M224 131Q202 129 200 107Q202 85 224 83Q246 85 248 107Q246 129 224 131M320 459Q321 486 339 504Q357 522 384 523L576 523Q603 522 621 504Q639 486 640 459L640 267Q639 240 621 222Q603 204 576 203L462 203Q470 231 464 259Q458 287 436 309L320 425L320 459M480 339Q502 341 504 363Q502 385 480 387Q458 385 456 363Q458 341 480 339"/>
</svg>