<svg xmlns="http://www.w3.org/2000/svg" viewBox="0 0 512 512">
  <path fill="currentColor" d="M246 15Q256 7 266 15L314 55Q323 63 318 75Q317 76 316 78Q316 79 315 81Q314 83 312 86Q312 87 311 88Q311 88 311 89Q337 104 352 130Q368 155 368 187Q368 219 352 244Q337 270 311 285Q311 286 312 288Q315 293 317 296Q317 296 317 296Q317 298 318 299Q323 311 314 319L272 355L272 374L308 350L349 322Q381 299 399 265Q417 231 417 192Q417 144 391 104L388 100Q382 90 389 80Q397 72 408 77L401 91Q406 81 407 78Q409 76 408 77L409 77L410 77Q410 78 411 78Q412 79 413 79Q413 79 413 79Q418 82 425 87Q440 96 460 116Q481 135 496 165Q512 195 513 235Q512 275 497 309Q481 343 462 369Q442 394 427 408Q420 415 416 419Q414 420 413 421Q413 422 413 422L412 423L411 423Q412 423 410 422Q408 420 401 411L411 423Q403 430 393 425L317 382L285 404L330 436Q333 435 336 435Q358 437 360 459Q358 481 336 483Q316 481 312 462L272 434L272 463Q287 472 288 491Q288 505 279 514Q270 523 256 523Q242 523 233 514Q224 505 224 491Q225 472 240 463L240 435L200 463Q195 482 176 483Q154 481 152 459Q154 437 176 435Q179 435 183 436L228 404L196 382L120 425Q110 430 102 423L112 411Q105 420 103 422Q101 424 102 423L101 423L100 422Q100 422 100 421Q99 421 97 419Q93 415 86 408Q71 394 51 369Q32 344 16 309Q1 275 0 235Q1 195 17 165Q32 135 53 116Q73 96 88 87Q96 82 100 79Q101 79 102 78Q103 78 103 78L104 77L105 77Q105 76 106 79Q107 81 112 91L105 77Q116 72 124 81Q131 90 125 100L123 104Q96 144 96 192Q96 231 114 265Q132 299 164 322L206 350L240 374L240 355L198 319Q189 311 194 299Q195 298 196 296Q196 295 197 293Q198 291 200 288Q200 287 201 286Q201 286 201 285Q175 270 160 244Q144 219 144 187Q144 155 160 130Q175 104 201 89Q201 88 200 86Q197 81 196 78Q195 76 194 75Q189 63 198 55L246 15M220 134Q193 152 192 187Q193 222 220 240Q231 211 232 187Q231 163 220 134M292 240Q319 222 320 187Q319 152 292 134Q281 163 280 187Q281 211 292 240"/>
</svg>