<svg xmlns="http://www.w3.org/2000/svg" viewBox="0 0 512 512">
  <path fill="currentColor" d="M64 43Q37 44 19 62Q1 80 0 107L0 427Q1 454 19 472Q37 490 64 491L96 491L96 43L64 43M128 43L128 491L128 43L128 491L448 491L448 43L128 43M512 491Q539 490 557 472Q575 454 576 427L576 107Q575 80 557 62Q539 44 512 43L480 43L480 491L512 491M256 187Q257 172 272 171L304 171Q319 172 320 187L320 235L368 235Q383 236 384 251L384 283Q383 298 368 299L320 299L320 347Q319 362 304 363L272 363Q257 362 256 347L256 299L208 299Q193 298 192 283L192 251Q193 236 208 235L256 235"/>
</svg>