<svg xmlns="http://www.w3.org/2000/svg" viewBox="0 0 512 512">
  <path fill="currentColor" d="M448 267Q448 215 422 171Q397 127 352 101Q307 75 256 75Q205 75 160 101Q115 127 90 171Q64 215 64 267Q64 319 90 363Q115 407 160 433Q205 459 256 459Q307 459 352 433Q397 407 422 363Q448 319 448 267M0 267Q1 197 34 139Q68 81 128 45Q189 11 256 11Q323 11 384 45Q444 81 478 139Q511 197 512 267Q511 337 478 395Q444 453 384 489Q323 523 256 523Q189 523 128 489Q68 453 34 395Q1 337 0 267M256 347Q301 346 325 307Q347 267 325 227Q301 188 256 187Q211 188 187 227Q165 267 187 307Q211 346 256 347M256 123Q295 123 328 142Q361 161 381 195Q400 229 400 267Q400 305 381 339Q361 373 328 392Q295 411 256 411Q217 411 184 392Q151 373 131 339Q112 305 112 267Q112 229 131 195Q151 161 184 142Q217 123 256 123M224 267Q224 253 233 244Q242 235 256 235Q270 235 279 244Q288 253 288 267Q288 281 279 290Q270 299 256 299Q242 299 233 290Q224 281 224 267"/>
</svg>