<svg xmlns="http://www.w3.org/2000/svg" viewBox="0 0 512 512">
  <path fill="currentColor" d="M142 33Q146 46 141 57Q135 69 122 73L96 82L96 203Q97 244 124 271Q151 298 192 299Q233 298 260 271Q287 244 288 203L288 82L262 73Q249 69 243 57Q238 46 242 33Q246 20 258 14Q269 9 282 13L308 21Q328 28 340 45Q352 61 352 82L352 203Q351 262 316 305Q280 347 225 360Q230 403 261 430Q292 458 336 459Q384 458 415 426Q447 395 448 347L448 276Q426 267 413 247Q400 228 400 203Q401 169 423 146Q446 124 480 123Q514 124 537 146Q559 169 560 203Q560 228 547 247Q534 267 512 276L512 347Q510 422 460 471Q411 521 336 523Q265 521 216 476Q167 430 161 360Q104 348 69 305Q33 262 32 203L32 82Q32 61 44 45Q56 28 76 21L102 13Q115 9 126 14Q138 20 142 33M480 235Q494 235 503 226Q512 217 512 203Q512 189 503 180Q494 171 480 171Q466 171 457 180Q448 189 448 203Q448 217 457 226Q466 235 480 235"/>
</svg>