<svg xmlns="http://www.w3.org/2000/svg" viewBox="0 0 512 512">
  <path fill="currentColor" d="M184 11Q208 12 224 27Q239 43 240 67L240 467Q239 491 224 507Q208 522 184 523Q162 523 146 509Q131 495 128 473Q120 475 112 475Q85 474 67 456Q49 438 48 411Q48 400 52 390Q29 381 14 361Q0 341 0 315Q0 291 13 272Q25 253 46 243Q32 226 32 203Q32 180 46 163Q60 146 82 140Q80 132 80 123Q80 100 94 83Q107 67 128 61Q131 39 146 25Q162 11 184 11M328 11Q350 11 366 25Q381 39 384 61Q405 67 418 83Q432 100 432 123Q432 132 430 140Q452 146 466 163Q480 180 480 203Q480 226 466 243Q487 253 499 272Q512 291 512 315Q512 341 498 361Q483 381 460 390Q464 400 464 411Q463 438 445 456Q427 474 400 475Q392 475 384 473Q381 495 366 509Q350 523 328 523Q304 522 288 507Q273 491 272 467L272 67Q273 43 288 27Q304 12 328 11"/>
</svg>