<svg xmlns="http://www.w3.org/2000/svg" viewBox="0 0 512 512">
  <path fill="currentColor" d="M192 11Q151 12 124 39Q97 66 96 107L96 267Q97 308 124 335Q151 362 192 363Q233 362 260 335Q287 308 288 267L288 107Q287 66 260 39Q233 12 192 11M64 227Q62 205 40 203Q18 205 16 227L16 267Q17 335 60 383Q102 431 168 441L168 475L120 475Q98 477 96 499Q98 521 120 523L192 523L264 523Q286 521 288 499Q286 477 264 475L216 475L216 441Q282 431 324 383Q367 335 368 267L368 227Q366 205 344 203Q322 205 320 227L320 267Q319 321 283 358Q246 394 192 395Q138 394 101 358Q65 321 64 267"/>
</svg>