<svg xmlns="http://www.w3.org/2000/svg" viewBox="0 0 512 512">
  <path fill="currentColor" d="M0 252Q2 190 43 150Q83 109 145 107Q205 108 248 150L320 222L392 150Q435 108 495 107Q557 109 597 150Q638 190 640 252L640 282Q638 344 597 384Q557 425 495 427Q435 426 392 385L320 312L248 385Q205 426 145 427Q83 425 43 384Q2 344 0 282L0 252M275 267L203 195L275 267L203 195Q179 172 145 171Q111 172 88 195Q65 218 64 252L64 282Q65 316 88 339Q111 362 145 363Q179 362 203 339L275 267M365 267L437 339L365 267L437 339Q461 363 495 363Q529 362 552 339Q575 316 576 282L576 252Q575 218 552 195Q529 172 495 171Q461 171 437 195"/>
</svg>