<svg xmlns="http://www.w3.org/2000/svg" viewBox="0 0 512 512">
  <path fill="currentColor" d="M310 189L448 308L310 189L448 308Q446 309 445 310Q444 311 443 311Q414 331 384 331Q353 331 325 311Q308 299 288 299Q268 299 251 311Q224 330 192 331Q176 331 160 325Q165 232 227 171Q290 109 384 107L448 107Q462 107 471 116Q480 125 480 139Q480 153 471 162Q462 171 448 171L384 171Q343 171 310 189M160 171Q159 207 128 226Q96 244 64 226Q33 207 32 171Q33 135 64 116Q96 98 128 116Q159 135 160 171M307 337Q342 362 384 363Q426 361 461 337Q482 324 501 339Q523 357 551 364Q564 367 571 378Q578 389 575 402Q572 415 561 422Q550 429 537 426Q499 416 479 401Q434 426 384 427Q335 424 304 408Q295 404 288 400Q281 404 272 408Q241 424 192 427Q142 426 98 401Q77 416 39 426Q26 429 15 422Q4 415 1 402Q-2 389 5 378Q12 367 25 364Q53 357 75 339Q94 325 115 337Q150 361 192 363Q235 362 270 337Q288 325 307 337"/>
</svg>