<svg xmlns="http://www.w3.org/2000/svg" viewBox="0 0 512 512">
  <path fill="currentColor" d="M272 107Q212 108 167 142Q122 175 104 230Q155 204 216 203L304 203Q319 204 320 219Q319 234 304 235L288 235L216 235Q216 235 216 235Q216 235 216 235Q191 235 168 240Q129 249 96 271Q96 271 96 271Q52 301 26 347Q1 394 0 451L0 467Q2 489 24 491Q46 489 48 467L48 451Q50 376 102 328Q118 386 164 422Q210 458 272 459L273 459Q340 458 394 419Q448 380 479 314Q511 249 512 168Q512 103 491 48Q489 43 483 43Q478 43 475 48Q460 75 434 91Q408 107 376 107"/>
</svg>