<svg xmlns="http://www.w3.org/2000/svg" viewBox="0 0 512 512">
  <path fill="currentColor" d="M192 11Q206 11 215 20Q224 29 224 43L224 155L160 155L160 43Q160 29 169 20Q178 11 192 11M64 75Q64 61 73 52Q82 43 96 43Q110 43 119 52Q128 61 128 75L128 155L64 155L64 75M256 75Q256 61 265 52Q274 43 288 43Q302 43 311 52Q320 61 320 75L320 171Q320 185 311 194Q302 203 288 203Q274 203 265 194Q256 185 256 171L256 75M352 139Q352 125 361 116Q370 107 384 107Q398 107 407 116Q416 125 416 139L416 203Q416 217 407 226Q398 235 384 235Q370 235 361 226Q352 217 352 203L352 139M256 227L256 226L256 227L256 226Q270 235 288 235Q308 235 324 224Q330 243 347 255Q363 267 384 267Q402 267 416 258L416 267Q416 307 399 340Q382 373 352 395L352 491Q352 505 343 514Q334 523 320 523L160 523Q146 523 137 514Q128 505 128 491L128 413Q102 401 81 380L70 369Q33 331 32 278L32 251Q33 224 51 206Q69 188 96 187L184 187Q201 187 212 199Q224 210 224 227Q224 244 212 255Q201 267 184 267L128 267Q113 268 112 283Q113 298 128 299L184 299Q215 298 235 278Q255 258 256 227"/>
</svg>