<svg xmlns="http://www.w3.org/2000/svg" viewBox="0 0 512 512">
  <path fill="currentColor" d="M320 59Q319 32 296 17Q272 5 248 17Q225 32 224 59Q225 86 248 101Q272 113 296 101Q319 86 320 59M126 187Q141 171 163 171Q166 171 169 171L138 265Q131 287 138 307Q145 327 164 340L251 393L225 482Q222 495 228 507Q234 518 247 522Q260 525 272 519Q283 513 287 500L316 399Q320 384 314 369Q309 354 295 346L238 310L269 228L274 240Q286 267 309 283Q333 299 363 299L384 299Q398 299 407 290Q416 281 416 267Q416 253 407 244Q398 235 384 235L363 235Q342 234 333 215L327 200Q303 146 246 127L198 112Q181 107 163 107Q115 108 81 141L57 164Q48 174 48 187Q48 200 57 210Q67 219 80 219Q93 219 103 210L126 187M91 363L32 363L91 363L32 363Q18 363 9 372Q0 381 0 395Q0 409 9 418Q18 427 32 427L102 427Q132 426 146 399L157 373L148 367Q121 350 110 322"/>
</svg>