<svg xmlns="http://www.w3.org/2000/svg" viewBox="0 0 512 512">
  <path fill="currentColor" d="M288 11L160 11L288 11L128 11Q114 11 105 20Q96 29 96 43Q96 57 105 66Q114 75 128 75L128 208Q128 226 119 241L10 417Q0 434 0 454Q1 483 20 503Q40 522 69 523L379 523Q408 522 428 503Q447 483 448 454Q448 434 438 417L330 241Q320 226 320 208L320 75Q334 75 343 66Q352 57 352 43Q352 29 343 20Q334 11 320 11L288 11M192 208L192 75L192 208L192 75L256 75L256 208Q256 244 275 275L310 331L139 331L173 275Q192 244 192 208"/>
</svg>