<svg xmlns="http://www.w3.org/2000/svg" viewBox="0 0 512 512">
  <path fill="currentColor" d="M227 104Q237 137 228 164Q218 192 194 201Q169 208 145 192Q121 175 109 142Q99 109 108 82Q118 54 142 45Q167 38 191 55Q215 71 227 104M100 210Q114 235 112 259Q109 282 90 294Q71 304 49 294Q27 285 12 260Q-2 235 1 211Q3 188 22 176Q41 166 63 176Q85 185 100 210M69 412Q96 342 132 303Q167 265 201 250Q234 234 256 235Q278 234 311 250Q345 265 380 303Q416 342 443 412Q448 427 448 443L448 444Q448 464 434 477Q421 491 401 491Q384 491 367 487L279 465Q256 459 233 465L145 487Q128 491 111 491Q91 491 78 477Q64 464 64 444L64 443Q64 427 69 412M422 294Q403 282 400 259Q398 235 412 210Q427 185 449 176Q471 166 490 176Q509 188 511 211Q514 235 500 260Q485 285 463 294Q441 304 422 294M310 201Q286 192 276 164Q267 137 278 104Q289 71 313 55Q337 38 362 45Q386 54 396 82Q405 109 395 142Q383 175 359 192Q335 208 310 201"/>
</svg>