<svg xmlns="http://www.w3.org/2000/svg" viewBox="0 0 512 512">
  <path fill="currentColor" d="M416 11Q383 12 346 19Q309 27 283 35Q257 42 256 43L256 171Q291 172 316 181Q340 191 360 203Q380 216 405 225Q429 235 464 235Q494 235 535 228Q576 220 607 199Q638 179 640 139Q639 99 603 70Q568 42 517 26Q465 11 416 11M128 107Q129 134 147 152Q165 170 192 171L224 171L224 43L192 43Q165 44 147 62Q129 80 128 107M288 523Q337 523 389 508Q440 492 475 464Q511 435 512 395Q510 355 479 335Q448 314 407 306Q366 299 336 299Q301 300 277 309Q252 319 232 331Q212 344 188 353Q163 363 128 363L128 491Q129 492 155 499Q181 507 218 515Q255 522 288 523M0 427Q1 454 19 472Q37 490 64 491L96 491L96 363L64 363Q37 364 19 382Q1 400 0 427"/>
</svg>