<svg xmlns="http://www.w3.org/2000/svg" viewBox="0 0 512 512">
  <path fill="currentColor" d="M224 267Q180 266 148 242Q115 217 102 178Q100 180 99 182Q86 193 71 198Q56 203 45 204Q31 203 31 190Q32 178 37 163Q42 149 53 136Q62 128 73 123Q62 118 53 109Q42 97 37 82Q32 67 31 56Q31 42 45 42Q56 43 71 48Q86 53 99 64Q106 72 110 80Q127 49 156 30Q186 11 224 11Q278 12 315 48Q351 85 352 139Q351 193 315 230Q278 266 224 267M0 493Q1 430 38 384Q74 337 133 321Q142 319 149 327L211 410Q224 423 237 410L299 327Q306 319 315 321Q374 337 410 384Q447 430 448 493Q448 506 439 514Q431 523 418 523L30 523Q17 523 9 514Q0 506 0 493M160 107Q145 108 144 123Q145 138 160 139L288 139Q303 138 304 123Q303 108 288 107"/>
</svg>