<svg xmlns="http://www.w3.org/2000/svg" viewBox="0 0 512 512">
  <path fill="currentColor" d="M96 340L147 290L96 340L147 290L233 376L183 427L203 448Q213 459 203 470L187 486Q179 494 170 490L108 462L51 518Q40 528 29 518L5 494Q-5 483 5 472L61 415L33 353Q30 344 37 336L53 320Q64 310 75 320L96 340M485 125L365 244L485 125L365 244L279 158L398 39Q408 28 422 25L493 11Q501 10 507 16Q513 22 512 30L498 101Q495 115 485 125M5 16Q11 10 19 11L90 25Q104 28 114 39L393 318L307 404L28 125Q17 115 14 101L0 30Q-1 22 5 16M459 320L475 336L459 320L475 336Q483 344 479 354L451 416L507 472Q517 483 507 494L483 518Q472 528 461 518L405 462L343 490Q333 494 325 486L309 470Q299 459 309 448L437 320Q448 310 459 320"/>
</svg>