<svg xmlns="http://www.w3.org/2000/svg" viewBox="0 0 512 512">
  <path fill="currentColor" d="M161 108Q182 133 210 150Q251 173 288 181L288 150Q253 104 249 39Q247 21 230 15Q218 12 209 20Q187 44 161 108M320 155L320 186L320 155L320 186L320 187L320 219Q288 217 244 201Q199 186 159 152Q119 118 101 62Q95 44 77 43Q64 43 58 54Q49 71 41 105Q33 139 32 187Q33 245 54 287Q75 328 103 353Q130 379 150 390L12 428Q4 430 1 438Q-2 446 3 453Q17 473 58 497Q98 521 160 523Q166 523 170 520L246 459L320 459Q388 457 433 412Q478 367 480 299L480 139L510 94Q512 91 512 87Q511 76 500 75L400 75Q366 76 343 98Q321 121 320 155M400 139Q415 140 416 155Q415 170 400 171Q385 170 384 155Q385 140 400 139"/>
</svg>