<svg xmlns="http://www.w3.org/2000/svg" viewBox="0 0 512 512">
  <path fill="currentColor" d="M224 27Q215 26 209 21Q208 21 208 21Q201 13 176 11Q153 12 137 39Q120 65 110 100Q74 107 53 117Q32 127 32 139Q35 161 97 175Q96 181 96 187Q96 213 105 235L45 235Q33 236 32 248Q32 251 33 253L72 350Q39 375 20 412Q0 449 0 493Q0 506 9 514Q17 523 30 523L418 523Q431 523 439 514Q448 506 448 493Q448 449 428 412Q409 375 376 350L415 253Q416 251 416 248Q415 236 403 235L343 235Q352 213 352 187Q352 181 351 175Q413 161 416 139Q416 127 395 117Q374 107 338 100Q328 65 311 39Q295 12 272 11Q247 13 240 21Q240 21 240 21Q239 21 239 21Q233 26 224 27M280 235L268 235L280 235L268 235Q241 234 231 209Q229 204 224 204Q219 204 217 209Q207 234 181 235L168 235Q151 235 140 223Q128 212 128 195L128 181Q171 187 224 187Q277 187 320 181L320 195Q320 212 308 223Q297 235 280 235M192 331L208 363L192 331L208 363L176 491L128 299L192 331M320 299L272 491L320 299L272 491L240 363L256 331"/>
</svg>