<svg xmlns="http://www.w3.org/2000/svg" viewBox="0 0 512 512">
  <path fill="currentColor" d="M235 54L197 68L235 54L197 68Q192 70 192 75Q192 80 197 82L235 96L249 134Q251 139 256 139Q261 139 263 134L277 96L315 82Q320 80 320 75Q320 70 315 68L277 54L263 16Q261 11 256 11Q251 11 249 16L235 54M46 406Q32 421 32 440Q32 459 46 474L81 509Q95 523 115 523Q134 523 149 509L530 128Q544 113 544 94Q544 74 530 60L495 25Q481 11 461 11Q442 11 427 25L46 406M485 94L380 199L485 94L380 199L356 175L461 70L485 94M8 128Q0 131 0 139Q0 147 8 150L64 171L85 228Q88 235 96 235Q104 235 107 228L128 171L185 150Q192 147 192 139Q192 131 185 128L128 107L107 51Q104 43 96 43Q88 43 85 51L64 107L8 128M360 384Q352 387 352 395Q352 403 360 406L416 427L437 484Q440 491 448 491Q456 491 459 484L480 427L537 406Q544 403 544 395Q544 387 537 384L480 363L459 307Q456 299 448 299Q440 299 437 307L416 363"/>
</svg>